<?xml version="1.0" encoding="UTF-8" standalone="no"?>
<!-- Created with Inkscape (http://www.inkscape.org/) -->

<svg
   width="1024"
   height="1024"
   viewBox="0 0 270.93333 270.93333"
   version="1.1"
   id="svg5"
   xml:space="preserve"
   inkscape:export-filename="OpenNept4une.png"
   inkscape:export-xdpi="96"
   inkscape:export-ydpi="96"
   inkscape:version="1.2.2 (b0a84865, 2022-12-01)"
   sodipodi:docname="OpenNept4une.svg"
   xmlns:inkscape="http://www.inkscape.org/namespaces/inkscape"
   xmlns:sodipodi="http://sodipodi.sourceforge.net/DTD/sodipodi-0.dtd"
   xmlns="http://www.w3.org/2000/svg"
   xmlns:svg="http://www.w3.org/2000/svg"><sodipodi:namedview
     id="namedview7"
     pagecolor="#ffffff"
     bordercolor="#000000"
     borderopacity="0.25"
     inkscape:showpageshadow="2"
     inkscape:pageopacity="0.0"
     inkscape:pagecheckerboard="0"
     inkscape:deskcolor="#d1d1d1"
     inkscape:document-units="mm"
     showgrid="false"
     inkscape:zoom="0.70710678"
     inkscape:cx="470.22601"
     inkscape:cy="576.29203"
     inkscape:window-width="3008"
     inkscape:window-height="1639"
     inkscape:window-x="2560"
     inkscape:window-y="25"
     inkscape:window-maximized="0"
     inkscape:current-layer="layer1" /><defs
     id="defs2"><filter
       id="mask-powermask-path-effect1713_inverse"
       inkscape:label="filtermask-powermask-path-effect1713"
       style="color-interpolation-filters:sRGB"
       height="100"
       width="100"
       x="-50"
       y="-50"><feColorMatrix
         id="mask-powermask-path-effect1713_primitive1"
         values="1"
         type="saturate"
         result="fbSourceGraphic" /><feColorMatrix
         id="mask-powermask-path-effect1713_primitive2"
         values="-1 0 0 0 1 0 -1 0 0 1 0 0 -1 0 1 0 0 0 1 0 "
         in="fbSourceGraphic" /></filter><filter
       id="mask-powermask-path-effect1723_inverse"
       inkscape:label="filtermask-powermask-path-effect1723"
       style="color-interpolation-filters:sRGB"
       height="100"
       width="100"
       x="-50"
       y="-50"><feColorMatrix
         id="mask-powermask-path-effect1723_primitive1"
         values="1"
         type="saturate"
         result="fbSourceGraphic" /><feColorMatrix
         id="mask-powermask-path-effect1723_primitive2"
         values="-1 0 0 0 1 0 -1 0 0 1 0 0 -1 0 1 0 0 0 1 0 "
         in="fbSourceGraphic" /></filter><filter
       id="mask-powermask-path-effect1733_inverse"
       inkscape:label="filtermask-powermask-path-effect1733"
       style="color-interpolation-filters:sRGB"
       height="100"
       width="100"
       x="-50"
       y="-50"><feColorMatrix
         id="mask-powermask-path-effect1733_primitive1"
         values="1"
         type="saturate"
         result="fbSourceGraphic" /><feColorMatrix
         id="mask-powermask-path-effect1733_primitive2"
         values="-1 0 0 0 1 0 -1 0 0 1 0 0 -1 0 1 0 0 0 1 0 "
         in="fbSourceGraphic" /></filter><filter
       id="mask-powermask-path-effect1750_inverse"
       inkscape:label="filtermask-powermask-path-effect1750"
       style="color-interpolation-filters:sRGB"
       height="100"
       width="100"
       x="-50"
       y="-50"><feColorMatrix
         id="mask-powermask-path-effect1750_primitive1"
         values="1"
         type="saturate"
         result="fbSourceGraphic" /><feColorMatrix
         id="mask-powermask-path-effect1750_primitive2"
         values="-1 0 0 0 1 0 -1 0 0 1 0 0 -1 0 1 0 0 0 1 0 "
         in="fbSourceGraphic" /></filter><filter
       id="mask-powermask-path-effect1764_inverse"
       inkscape:label="filtermask-powermask-path-effect1764"
       style="color-interpolation-filters:sRGB"
       height="100"
       width="100"
       x="-50"
       y="-50"><feColorMatrix
         id="mask-powermask-path-effect1764_primitive1"
         values="1"
         type="saturate"
         result="fbSourceGraphic" /><feColorMatrix
         id="mask-powermask-path-effect1764_primitive2"
         values="-1 0 0 0 1 0 -1 0 0 1 0 0 -1 0 1 0 0 0 1 0 "
         in="fbSourceGraphic" /></filter><filter
       id="mask-powermask-path-effect1775_inverse"
       inkscape:label="filtermask-powermask-path-effect1775"
       style="color-interpolation-filters:sRGB"
       height="100"
       width="100"
       x="-50"
       y="-50"><feColorMatrix
         id="mask-powermask-path-effect1775_primitive1"
         values="1"
         type="saturate"
         result="fbSourceGraphic" /><feColorMatrix
         id="mask-powermask-path-effect1775_primitive2"
         values="-1 0 0 0 1 0 -1 0 0 1 0 0 -1 0 1 0 0 0 1 0 "
         in="fbSourceGraphic" /></filter></defs><g
     inkscape:label="Layer 1"
     inkscape:groupmode="layer"
     id="layer1"><g
       id="g1115"
       transform="translate(0,-23.881506)"><g
         id="g2639"
         transform="matrix(1.0269616,0,0,1.0269616,-3.6523981,-4.296284)"><g
           id="g1092"
           transform="matrix(2.2592892,0,0,2.2592892,55.177869,-187.72499)"
           style="fill:#3c2100;fill-opacity:1"><g
             id="g1107"
             transform="translate(0.53358429,28.413363)"
             style="fill:#3c2100;fill-opacity:1" /><g
             id="g405"
             transform="translate(0.53358429,28.413363)"
             style="fill:#3c2100;fill-opacity:1"><path
               id="path1097"
               style="fill:#408edf;fill-opacity:1;stroke-width:1.41894;stroke-dasharray:none"
               class="st0"
               d="m 63.833026,5.8235223 c -0.775282,-0.00564 -1.550746,0.0049 -2.325294,0.031984 C 45.607916,6.3700627 30.02146,13.782396 19.697666,25.941588 11.109938,35.979006 6.0525998,49.068157 5.8341065,62.290736 5.5798962,75.387006 10.014981,88.637661 18.146471,98.93548 c 6.147051,7.77401 14.348706,13.89997 23.535293,17.61337 1.288293,-3.35911 2.577413,-6.71782 3.866745,-10.07653 C 34.058618,96.503466 25.428633,82.764145 25.423447,66.884353 c -1.14e-4,-0.371691 0.0038,-0.74564 0.01074,-1.123917 0.0069,-0.375315 0.01653,-0.752194 0.03073,-1.128664 0.0142,-0.376269 0.03288,-0.751776 0.05472,-1.128415 0.02205,-0.380162 0.0494,-0.757357 0.07896,-1.130664 0.02975,-0.37582 0.06271,-0.753172 0.100947,-1.130663 0.03792,-0.374373 0.07762,-0.750183 0.124686,-1.128415 0.467988,-3.760858 1.377888,-7.491255 2.898996,-11.019535 0.364601,-0.845485 0.773049,-2.00688 1.422013,-3.12238 0.08721,-0.149906 0.173221,-0.287151 0.256367,-0.414036 h 0.0022 c 0.629596,-0.96077 1.544633,-1.9113 2.868263,-2.318297 1.069923,-0.329143 2.092564,0.628713 1.834049,1.717859 -1.10172,4.614981 -1.372918,12.217839 0.416284,16.300296 0.231384,0.527992 0.490919,0.836922 0.830569,1.132662 0.0606,0.05277 0.131789,0.109796 0.214639,0.17316 0.529459,0.405135 1.291478,0.777118 2.134143,1.431008 0.123749,0.09603 0.245107,0.197593 0.363811,0.302343 0.245145,0.216244 0.48386,0.458344 0.709882,0.731871 0.294032,0.355794 0.509597,0.748646 0.666154,1.145906 0.05143,0.130531 0.09723,0.262546 0.138179,0.396544 0.04008,0.131193 0.07412,0.262928 0.105195,0.396544 0.215038,0.924511 0.229274,1.84501 0.19265,2.662369 -0.01039,0.231826 -0.02609,0.456261 -0.04373,0.670653 -0.018,0.218599 -0.03807,0.418683 -0.05697,0.59594 -0.08606,0.810741 -0.824383,1.390505 -1.632404,1.281836 -1.117865,-0.150423 -2.155649,-0.537309 -2.730334,-0.554463 -0.0037,1.4e-5 -0.0073,1.4e-5 -0.01099,0 -0.04005,-0.0015 -0.08398,-1.41e-4 -0.129183,0.0022 -0.03422,0.0018 -0.016,0.0033 -0.03948,0.0065 -1.45e-4,0.0035 1.24e-4,0.0051 0,0.0087 -0.0014,0.03982 -4.67e-4,0.09406 0.0022,0.155669 0.02302,0.522462 0.277207,1.50422 0.657409,2.502203 0.08558,0.224634 0.175255,0.447212 0.267362,0.668403 0.652228,1.566419 1.452653,3.066102 1.790071,3.722819 1.753269,3.412513 4.953131,7.816866 8.558811,10.679711 0.171473,0.136152 0.343546,0.269429 0.516982,0.398793 0.173345,0.129309 0.347315,0.253216 0.521729,0.374806 0.178005,0.12408 0.351678,0.241593 0.523479,0.352817 0.168906,0.109328 0.345535,0.219577 0.528226,0.32858 0.540668,0.32256 1.083246,0.60054 1.623908,0.834817 1.093752,-2.862903 2.185407,-5.726405 3.273302,-8.591544 -4.836594,-2.169917 -8.808827,-6.173578 -10.942325,-11.025282 -0.489309,-0.847938 -0.785953,-1.92027 -1.132412,-2.770563 -2.190777,-7.253086 0.0865,-15.586091 5.406196,-20.960629 1.679711,-1.748968 3.66202,-3.193037 5.82323,-4.28153 0.995832,-2.144391 2.174213,-4.199577 3.479195,-6.148561 0.33205,-0.495973 0.91051,-1.492707 1.597422,-2.495705 0.686343,-1.002168 1.459391,-2.041106 2.519693,-2.767565 8.77e-4,-6.01e-4 0.0014,-0.0014 0.0022,-0.002 0.05441,-0.03762 0.101439,-0.06726 0.122686,-0.08121 0.008,-0.0059 0.0161,-0.01174 0.02424,-0.01749 -0.02686,0.01685 0.01506,-0.0083 0.01524,-0.0087 0.330051,-0.211149 0.700917,-0.393098 1.134912,-0.488747 0.243939,-0.0502 0.132463,-0.06473 0.705634,-0.07871 0.0044,-2e-5 0.0088,-2e-5 0.01324,0 0.957454,0.02839 1.640737,0.500666 2.210853,0.994734 0.570118,0.494069 1.055881,1.078896 1.503221,1.676131 0.89468,1.194459 1.681463,2.519519 1.974226,2.909991 h -0.0022 c 1.538558,2.051305 2.933629,4.209112 4.103122,6.474642 4.057426,2.031171 7.496537,5.30327 9.568787,9.360895 3.404057,6.434542 3.250961,14.591324 -0.438273,20.875673 -2.239269,3.906786 -5.762217,7.086266 -9.899865,8.865901 1.098995,2.860054 2.196598,5.720516 3.294291,8.58105 2.420508,-0.958299 4.772543,-2.788691 6.843201,-5.05163 2.799676,-3.059647 5.059197,-6.856455 6.341461,-9.912859 0.399012,-0.951548 1.027005,-2.084785 1.492226,-3.190345 0.437575,-1.039863 0.566088,-1.946948 0.534473,-2.259079 -0.103884,0.0028 -0.184888,-0.0097 -0.433775,0.06572 -0.723798,0.21934 -1.783767,0.964635 -1.838297,1.02322 -0.546083,0.587668 -1.465942,0.619159 -2.050936,0.07021 l -0.03523,-0.03298 c -0.130069,-0.122602 -0.236306,-0.268234 -0.313337,-0.429527 -0.700193,-1.455027 -0.88437,-2.86429 -0.615681,-4.097375 0.268688,-1.233074 0.928797,-2.214645 1.628156,-3.050168 1.39872,-1.671035 2.959363,-2.944387 3.560653,-4.41521 1.802824,-4.410428 1.218118,-10.183623 1.218118,-15.480721 -0.001,-1.073512 1.125844,-1.774597 2.088417,-1.299326 2.561037,1.259752 3.382642,4.007782 4.073387,5.832975 1.679148,4.437376 2.502849,8.821962 3.043429,13.403298 1.95817,16.585235 -7.80835,33.313566 -19.678801,44.064653 1.248868,3.24096 2.499791,6.48096 3.756302,9.71896 13.875688,-5.64757 25.395819,-16.87177 31.173089,-30.724073 4.08179,-9.640783 5.55011,-20.448583 3.97968,-30.792779 -1.63033,-11.15373 -6.5616,-21.809515 -14.12242,-30.195589 C 99.20742,17.08142 89.95042,11.240746 79.881452,8.2572601 74.688008,6.6986823 69.259997,5.8630009 63.833026,5.8235223 Z M 51.224815,91.660006 c -1.887027,4.939304 -3.781381,9.876034 -5.676306,14.812314"
               transform="matrix(0.89135698,0,0,0.89135698,-21.503078,70.628216)"
               sodipodi:nodetypes="sccccccssssssscscccccscsccsscssccccccsssccssssccccccccsscccccccsscccccccscscsccccsscccccccccccscc" /></g></g><g
           id="g348"
           transform="matrix(2.2592892,0,0,2.2592892,55.177869,-187.72499)"
           style="fill:#3c2100;fill-opacity:1"><g
             id="g346"
             transform="translate(0.53358429,28.413363)"
             style="fill:#3c2100;fill-opacity:1" /></g></g></g><path
       style="fill:#000000;fill-opacity:1;stroke:none;stroke-width:1.75664;stroke-dasharray:none;stroke-opacity:1"
       d="m 31.288044,120.98638 c 0,8.70585 0.37174,17.78027 -0.30295,26.45437 -0.22886,2.94269 -1.21999,7.56523 -5.2533,6.74502 -5.7158,-1.16258 -11.15695,-7.94861 -13.66308,-12.82647 -0.65035,-1.26577 -3.6851204,-6.87732 -2.1238204,-7.92903 0.9363704,-0.63104 2.6016504,0.11959 3.6160704,0.25611 0.13387,-1.25545 0.25717,-3.23215 -0.60299,-4.27302 -1.2528,-1.51606 -3.0689004,-1.58882 -3.9785404,-3.66448 -1.82668,-4.16798 -1.48352,-10.99793 -0.44556,-15.34583 -1.83885,0.56541 -2.54846,2.87258 -3.24935,4.49792 -2.0783,4.8207 -2.83765,10.13063 -2.83606,15.34583 0.005,15.31011 9.3419004,28.41863 21.1666604,37.27265 2.54873,1.90843 5.20885,3.68485 7.9375,5.32526 1.09405,0.65776 2.379336,1.69572 3.704376,1.74969 1.30757,0.0529 2.596414,-0.83873 3.703954,-1.42689 3.22078,-1.7108 6.17538,-3.95367 8.99584,-6.24655 11.31358,-9.19745 21.18465,-24.91343 19.38999,-40.11374 -0.4752,-4.02723 -1.19089,-7.81844 -2.63764,-11.64167 -0.62362,-1.64783 -1.34646,-3.6875 -2.99402,-4.49792 0,4.60957 0.60007,9.92294 -1.18401,14.2875 -1.41393,3.45864 -6.22697,4.85643 -4.10766,9.26042 l 0.03146,0.0293 c 0.7112,-0.76412 3.763734,-2.43884 4.251624,-0.53913 0.4109,1.60099 -1.29514,4.36165 -1.89892,5.80152 -2.40585,5.73563 -8.27061,13.91602 -15.08416,14.71982 -3.9579,0.46699 -4.44738,-4.59369 -4.87098,-7.31149 -1.30148,-8.35448 -0.8247,-17.25745 -0.42068,-25.66458 l 7.14375,1.05833 c -0.054,-6.53441 -2.79533,-12.32561 -6.64819,-17.4625 -0.7866,-1.04912 -2.68737,-4.6347 -4.21957,-4.45137 -1.65815,0.19841 -3.37053,3.45723 -4.21323,4.71596 -3.4118,5.09507 -5.8039,10.97888 -5.8211,17.19791 z"
       id="path392"
       sodipodi:nodetypes="cscscccccccssccccccccccccccccsccc"
       transform="matrix(2.3202032,0,0,2.3202032,54.251177,-155.03937)" /><path
       style="fill:#ffffff;fill-opacity:0.246988;stroke:none;stroke-width:0.264549;stroke-dasharray:none"
       d="m 24.673454,122.3093 6.61459,-1.32292 c 0,8.70585 0.37174,17.78027 -0.30295,26.45437 -0.22886,2.94269 -1.21999,7.56523 -5.2533,6.74502 -5.7158,-1.16258 -11.15695,-7.94861 -13.66308,-12.82647 -0.65035,-1.26577 -3.6851204,-6.87732 -2.1238204,-7.92903 0.9363704,-0.63104 2.6016504,0.11959 3.6160704,0.25611 0.13387,-1.25545 0.25717,-3.23215 -0.60299,-4.27302 -1.2528,-1.51606 -3.0689004,-1.58882 -3.9785404,-3.66448 -1.82668,-4.16798 -1.48352,-10.99793 -0.44556,-15.34583 -1.83885,0.56541 -2.54846,2.87258 -3.24935,4.49792 -2.0783,4.8207 -2.83765,10.13063 -2.83606,15.34583 0.005,15.31011 9.3419004,28.41863 21.1666604,37.27265 2.54873,1.90843 5.20885,3.68485 7.9375,5.32526 1.09405,0.65776 2.37913,1.69572 3.70417,1.74969 -0.02769,-74.23189 -0.04521,0.0258 -0.388544,-74.19061 -1.514182,-0.13616 -3.38149,3.1674 -4.431211,4.81947 -3.163375,5.13648 -5.202497,9.11777 -5.676185,15.52104"
       id="path465"
       sodipodi:nodetypes="ccscscccccccsscccc"
       transform="matrix(2.3202032,0,0,2.3202032,54.251177,-155.03937)" /></g><style
     type="text/css"
     id="style255"><![CDATA[
	.st0{fill:#21552A;}
	.st1{fill:#3FA652;}
]]></style></svg>
