<svg xmlns="http://www.w3.org/2000/svg" width="1024" height="1024" viewBox="0 0 270.933 270.933"><path d="M136.375 20.876q-2.405-.018-4.809.066c-32.883 1.064-65.118 16.394-86.469 41.541-17.761 20.759-28.22 47.829-28.672 75.175-.526 27.085 8.647 54.489 25.464 75.786 12.713 16.078 29.675 28.747 48.674 36.427l7.997-20.84c-23.763-20.617-41.611-49.032-41.621-81.873l.022-2.324.064-2.334.113-2.334.163-2.338.209-2.338.258-2.334c.968-7.778 2.85-15.493 5.996-22.79.754-1.749 1.599-4.15 2.941-6.457a19 19 0 0 1 .53-.856h.005c1.302-1.987 3.195-3.953 5.932-4.795 2.213-.681 4.328 1.3 3.793 3.553-2.279 9.544-2.839 25.268.861 33.711.479 1.092 1.015 1.731 1.718 2.342a9 9 0 0 0 .444.358c1.095.838 2.671 1.607 4.414 2.96q.384.3.752.625c.507.447 1.001.948 1.468 1.514a8.7 8.7 0 0 1 1.378 2.37 11.4 11.4 0 0 1 .504 1.64c.445 1.912.474 3.816.398 5.506-.021.479-.054.944-.09 1.387l-.118 1.232a2.993 2.993 0 0 1-3.376 2.651c-2.312-.311-4.458-1.111-5.647-1.147h-.023q-.126-.004-.267.005c-.071.004-.033.007-.082.013a5 5 0 0 0 .005.34c.048 1.081.573 3.111 1.36 5.175q.266.697.553 1.382c1.349 3.24 3.004 6.341 3.702 7.699 3.626 7.058 10.244 16.166 17.701 22.087l1.069.825q.538.4 1.079.775.55.385 1.083.73a35 35 0 0 0 1.092.68 29 29 0 0 0 3.358 1.727l6.77-17.768c-10.003-4.488-18.218-12.768-22.63-22.802-1.012-1.754-1.625-3.971-2.342-5.73-4.531-15 .179-32.234 11.181-43.349 3.474-3.617 7.574-6.604 12.043-8.855 2.06-4.435 4.497-8.685 7.195-12.716.687-1.026 1.883-3.087 3.304-5.161s3.018-4.221 5.211-5.724c.117-.082.214-.143.258-.172l.05-.036c-.056.035.031-.017.032-.018.683-.437 1.45-.813 2.347-1.011.504-.104.274-.134 1.459-.163h.027c1.98.059 3.393 1.035 4.572 2.057s2.184 2.231 3.109 3.466c1.85 2.47 3.477 5.211 4.083 6.018h-.005c3.182 4.242 6.067 8.705 8.486 13.39 8.391 4.201 15.504 10.968 19.789 19.36 7.04 13.307 6.723 30.177-.906 43.174-4.631 8.08-11.917 14.655-20.474 18.336l6.813 17.747c5.006-1.982 9.87-5.767 14.153-10.447 5.79-6.328 10.463-14.18 13.115-20.501.825-1.968 2.124-4.312 3.086-6.598.905-2.151 1.171-4.027 1.105-4.672-.215.006-.382-.02-.897.136-1.497.454-3.689 1.995-3.802 2.116a2.994 2.994 0 0 1-4.242.145l-.073-.068a3 3 0 0 1-.648-.888c-1.448-3.009-1.829-5.924-1.273-8.474s1.921-4.58 3.367-6.308c2.893-3.456 6.12-6.089 7.364-9.131 3.728-9.121 2.519-21.061 2.519-32.016-.002-2.22 2.328-3.67 4.319-2.687 5.297 2.605 6.996 8.289 8.424 12.063 3.473 9.177 5.176 18.245 6.294 27.72 4.05 34.3-16.149 68.897-40.698 91.131l7.769 20.1c28.697-11.68 52.522-34.893 64.47-63.541 8.442-19.938 11.478-42.29 8.23-63.683-3.372-23.067-13.57-45.105-29.207-62.448-14.514-16.228-33.659-28.307-54.483-34.477-10.741-3.223-21.967-4.952-33.19-5.033zM110.3 198.397l-11.74 30.634" fill="#408edf"/><path d="M126.846 125.674c0 20.199.863 41.254-.703 61.38-.531 6.828-2.831 17.553-12.189 15.65-13.262-2.697-25.886-18.442-31.701-29.76-1.509-2.937-8.55-15.957-4.928-18.397 2.173-1.464 6.036.277 8.39.594.311-2.913.597-7.499-1.399-9.914-2.907-3.518-7.12-3.686-9.231-8.502-4.238-9.671-3.442-25.517-1.034-35.605-4.267 1.312-5.913 6.665-7.539 10.436-4.822 11.185-6.584 23.505-6.58 35.605.012 35.523 21.675 65.937 49.111 86.48a219 219 0 0 0 18.417 12.356c2.538 1.526 5.521 3.934 8.595 4.06 3.034.123 6.024-1.946 8.594-3.311 7.473-3.969 14.328-9.173 20.872-14.493 26.25-21.34 49.153-57.804 44.989-93.072-1.103-9.344-2.763-18.14-6.12-27.011-1.447-3.823-3.124-8.556-6.947-10.436 0 10.695 1.392 23.023-2.747 33.15-3.281 8.025-14.448 11.268-9.531 21.486l.073.068c1.65-1.773 8.733-5.659 9.865-1.251.953 3.715-3.005 10.12-4.406 13.461-5.582 13.308-19.189 32.288-34.998 34.153-9.183 1.084-10.319-10.658-11.302-16.964-3.02-19.384-1.913-40.041-.976-59.547l16.575 2.456c-.125-15.161-6.486-28.598-15.425-40.517-1.825-2.434-6.235-10.753-9.79-10.328-3.847.46-7.82 8.021-9.776 10.942-7.916 11.822-13.466 25.473-13.506 39.903z"/><path d="m111.499 128.743 15.347-3.069c0 20.199.863 41.254-.703 61.38-.531 6.828-2.831 17.553-12.189 15.65-13.262-2.697-25.886-18.442-31.701-29.76-1.509-2.937-8.55-15.957-4.928-18.397 2.173-1.464 6.036.277 8.39.594.311-2.913.597-7.499-1.399-9.914-2.907-3.518-7.12-3.686-9.231-8.502-4.238-9.671-3.442-25.517-1.034-35.605-4.267 1.312-5.913 6.665-7.539 10.436-4.822 11.185-6.584 23.505-6.58 35.605.012 35.523 21.675 65.937 49.111 86.48a219 219 0 0 0 18.417 12.356c2.538 1.526 5.52 3.934 8.594 4.06-.064-172.233-.105.06-.902-172.137-3.513-.316-7.846 7.349-10.281 11.182-7.34 11.918-12.071 21.155-13.17 36.012" fill="#fff" fill-opacity=".247"/></svg>